<svg xmlns="http://www.w3.org/2000/svg" viewBox="0 0 915 285">
  <path fill="#22C35D" d="M893.42.295c14.371.214 20.352 11.875 21.215 21.705 0 21.357.359 251.776.361 252.972.01 5.983-3.923 9.721-7.434 10.019-1.317-.025-64.059-.034-67.707.033-2.847.052-5.4-3.95-5.389-8.857.008-3.324-.248-20.562-.287-24.548-.003-4.129-3.046-4.543-5.86-4.498-3.811-.053-185.817-1.534-193.962-1.624-12.294-.136-16.968-7.376-17.218-21.584-.016-11.918.527-185.091.385-202.634-.072-8.828 2.147-21.862 15.609-21.011m205.753 146.885c.4-9.659.733-43.859.35-60.214-.557-23.779-9.832-24.772-37.576-25.229-20.467-.337-40.951-.607-61.42-.185-25.842.533-44.865-.548-43.734 24.839.181 4.066.222 27.994.314 49.358.03 6.971-.051 13.67.082 19.315.476 20.145 14.438 19.899 35.406 20.237 12.23.197 73.36.019 80.527.166 12.687-.047 26.902-1.427 26.051-28.287z"/>
  <path fill="#212121" d="M.104 227.557C.104 156.203.104 84.849.434 12.948c.05-.673-.76-13.12 13.98-13.139 59.2-.075 217.16-.104 252.374.3 8.893.102 17.965 6.9 19.333 12.337 8.677 34.49 1.219 163.932 4.713 217.594.739 11.353-4.063 14.552-15.941 14.389-17.362-.239-26.749 1.151-41.399.532-11.77-.497-25.4-.157-25.75-14.509-.21-8.577-.55-17.504-1.06-25.067-.71-10.53-2.13-22.208-27.5-21.876-22.65.297-45.31-.207-67.96.268-13.51.284-15.7.284-21.35 3.471-6.83 3.848-7.96 11.121-8.83 19.4-.4 3.741-.41 17.866-.39 21.641m0 0c.07 15.792-7.21 16.354-19.99 16.409-14.77.064-26.74-.305-41.14-.444-11.71-.113-19.25-.46-19.42-16.7M87.104 105.046c6.62 6.045 14.2 9.523 23.38 9.556 20.79.073 41.59.739 62.38.446 8.63-.122 17.37.031 25.62-4.678 13.62-7.778 17.67-23.46 7.55-35.111-7.21-8.3-16.99-11.741-28-11.713-20.48.051-40.97-.178-61.45.193-6.22.113-12.96.668-18.51 3.148-15.36 6.863-26.04 21.485-10.97 38.201z"/>
  <path fill="#212121" d="M310.232 12.552c.717-4.255 4.752-11.865 10.837-12.271 44.079-2.938 244.704-.698 260.437-.295 13.386.343 16.657 5.938 17.136 14.394.5 8.835 1.332 195.758 1.04 203.955-.392 11.003.03 26.001-21.04 26.149-12.708.089-236.668 1.483-248.618 1.108-23.182-.727-21.861-6.254-21.862-19.098-.001-11.51-.856-26.389-.39-39.65.355-10.12 2.802-15.25 17.5-15.502 6.152-.106 19.604-.416 21-.208 3.309-18.51 1.093-57.454.135-76.776-.562-11.331-4.408-11.635-21.218-11.512-17.602.129-14.464-9.883-15.131-10.745.134-22.346-1.504-42.509.232-52.472m210.155 79.237c-.343-21.679-8.006-29.525-26.329-29.257-12.875.188-32.751.028-45.35.18-17.94.217-29.173 5.522-28.793 29.458.285 17.959-.211 36.772.651 53.881 1.197 23.755 13.575 29.16 29.135 29.314 13.257.131 26.787-.801 39.769-.608 16.478.245 31.751-3.754 31.754-25.793.002-17.836-.536-38.117-.837-57.175z"/>
</svg>
