<?xml version="1.0" encoding="utf-8"?>
<svg version="1.1" id="Layer_1" xmlns="http://www.w3.org/2000/svg" x="0px" y="0px" width="100%" viewBox="0 0 915 285" enable-background="new 0 0 915 285">
  <path fill="#22C35D" opacity="1.000000" stroke="none" d="M 893.42 0.295 C 907.791 0.509 913.772 12.17 914.635 22 C 914.635 43.357 914.994 273.776 914.996 274.972 C 915.006 280.955 911.073 284.693 907.562 284.991 C 906.245 284.966 843.503 284.957 839.855 285.024 C 837.008 285.076 834.455 281.074 834.466 276.167 C 834.474 272.843 834.218 255.605 834.179 251.619 C 834.176 247.49 831.133 247.076 828.319 247.121 C 824.508 247.068 642.502 245.587 634.357 245.497 C 622.063 245.361 617.389 238.121 617.139 223.913 C 617.123 211.995 617.666 38.822 617.524 21.279 C 617.452 12.451 619.671 -0.583 633.133 0.268 M 838.886 147.18 C 839.286 137.521 839.619 103.321 839.236 86.966 C 838.679 63.187 829.404 62.194 801.66 61.737 C 781.193 61.4 760.709 61.13 740.24 61.552 C 714.398 62.085 695.375 61.004 696.506 86.391 C 696.687 90.457 696.728 114.385 696.82 135.749 C 696.85 142.72 696.769 149.419 696.902 155.064 C 697.378 175.209 711.34 174.963 732.308 175.301 C 744.538 175.498 805.668 175.32 812.835 175.467 C 825.522 175.42 839.737 174.04 838.886 147.18 Z"/>
  <path fill="#212121" opacity="1.000000" stroke="none" d="M 0.104 227.557 C 0.104 156.203 0.104 84.849 0.434 12.948 C 0.484 12.275 -0.326 -0.172 14.414 -0.191 C 73.614 -0.266 231.574 -0.295 266.788 0.109 C 275.681 0.211 284.753 7.009 286.121 12.446 C 294.798 46.936 287.34 176.378 290.834 230.04 C 291.573 241.393 286.771 244.592 274.893 244.429 C 257.531 244.19 248.144 245.58 233.494 244.961 C 221.724 244.464 208.094 244.804 207.744 230.452 C 207.534 221.875 207.194 212.948 206.684 205.385 C 205.974 194.855 204.554 183.177 179.184 183.509 C 156.534 183.806 133.874 183.302 111.224 183.777 C 97.714 184.061 95.524 184.064 89.874 187.251 C 83.044 191.099 81.914 198.372 81.044 206.651 C 80.644 210.392 80.634 224.517 80.654 228.292 M 80.654 228.292 C 80.724 244.084 73.444 244.646 60.664 244.701 C 45.894 244.765 33.924 244.396 19.524 244.257 C 7.814 244.144 0.274 243.797 0.104 227.557 M 87.104 105.046 C 93.724 111.091 101.304 114.569 110.484 114.602 C 131.274 114.675 152.074 115.341 172.864 115.048 C 181.494 114.926 190.234 115.079 198.484 110.37 C 212.104 102.592 216.154 86.91 206.034 75.259 C 198.824 66.959 189.044 63.518 178.034 63.546 C 157.554 63.597 137.064 63.326 116.584 63.697 C 110.364 63.81 103.624 64.365 98.074 66.845 C 82.714 73.708 72.034 88.33 87.104 105.046 Z"/>
  <path fill="#212121" opacity="1.000000" stroke="none" d="M 310.232 12.552 C 310.949 8.297 314.984 0.687 321.069 0.281 C 365.148 -2.657 565.773 -0.479 581.506 -0.076 C 594.892 0.267 598.163 5.862 598.642 14.318 C 599.142 23.153 599.974 210.076 599.682 218.273 C 599.29 229.276 599.712 245.274 578.642 245.422 C 565.934 245.511 341.974 246.905 330.024 246.53 C 306.842 245.803 308.163 240.276 308.162 227.432 C 308.161 215.922 307.306 201.043 307.772 187.782 C 308.127 177.662 310.574 172.532 325.272 172.28 C 331.424 172.174 344.876 171.864 346.272 164.057 C 349.581 145.547 347.365 106.603 346.407 87.281 C 345.845 75.95 341.999 75.646 325.189 75.769 C 307.587 75.898 310.725 65.886 310.058 65.024 C 310.192 42.678 308.554 22.515 310.232 12.552 Z M 520.387 91.789 C 520.044 70.11 512.381 62.264 494.058 62.532 C 481.183 62.72 461.307 62.56 448.708 62.712 C 430.768 62.929 419.535 68.234 419.915 92.17 C 420.2 110.129 419.704 128.942 420.566 146.051 C 421.763 169.806 434.141 175.211 449.701 175.365 C 462.958 175.496 476.488 174.564 489.47 174.757 C 505.948 175.002 521.221 171.003 521.224 148.964 C 521.226 131.128 520.688 110.847 520.387 91.789 Z"/>
</svg>