<?xml version="1.0" encoding="UTF-8"?>
<!DOCTYPE svg PUBLIC "-//W3C//DTD SVG 1.1//EN" "http://www.w3.org/Graphics/SVG/1.1/DTD/svg11.dtd">
<!-- Creator: CorelDRAW -->
<svg xmlns="http://www.w3.org/2000/svg" xml:space="preserve" width="885.783mm" height="278.289mm" version="1.1" style="shape-rendering:geometricPrecision; text-rendering:geometricPrecision; image-rendering:optimizeQuality; fill-rule:evenodd; clip-rule:evenodd"
viewBox="0 0 88609.31 27838.64"
 xmlns:xlink="http://www.w3.org/1999/xlink"
 xmlns:xodm="http://www.corel.com/coreldraw/odm/2003">
 <defs>
  <style type="text/css">
   <![CDATA[
    .fil0 {fill:#FEFEFE}
    .fil1 {fill:#22C35C}
   ]]>
  </style>
 </defs>
 <g id="Слой_x0020_1">
  <metadata id="CorelCorpID_0Corel-Layer"/>
  <path class="fil0" d="M31650.16 0l25309 0c808.06,0 1469.19,661.14 1469.19,1469.19l0 20913.33c0,808.06 -661.13,1469.19 -1469.19,1469.19 -8397.01,0 -17011.07,0 -25309,0 -808.05,0 -1469.19,-661.13 -1469.19,-1469.19l0 -4240.59c0,-807.98 661.18,-1469.16 1469.17,-1469.16l704.79 0c807.73,0 1469.16,-661.43 1469.16,-1469.17l0 -6555.45c0,-807.74 -661.11,-1469.17 -1469.16,-1469.17l-704.79 0c-807.99,0 -1469.17,-661.18 -1469.17,-1469.17l0 -4240.59c0,-808.05 661.14,-1469.19 1469.19,-1469.19zm10764.66 6401.51l6879.17 0c808.06,0 1469.17,661.56 1469.17,1469.17l0 8110.36c0,807.6 -661.56,1469.17 -1469.17,1469.17l-6879.17 0c-807.61,0 -1469.17,-661.12 -1469.17,-1469.17l0 -8110.36c0,-808.06 661.11,-1469.17 1469.17,-1469.17z"/>
  <path class="fil1" d="M69685.34 6254.09l9396.27 0c808.05,0 1469.17,661.3 1469.17,1469.17l0 7993.1c0,807.87 -661.3,1469.17 -1469.17,1469.17l-9396.27 0c-807.87,0 -1469.17,-661.12 -1469.17,-1469.17l0 -7993.1c0,-808.05 661.12,-1469.17 1469.17,-1469.17zm10865.44 19066.8c0,-807.99 -661.19,-1469.17 -1469.17,-1469.17l-12539.94 0 -4710.56 0c-807.98,0 -1469.19,-661.13 -1469.19,-1469.19l0 -20913.33c0,-808.05 661.14,-1469.19 1469.19,-1469.19l25309.01 0c808.05,0 1469.19,661.16 1469.19,1469.19l0 24900.24c0,808.04 -661.16,1469.2 -1469.19,1469.2l-5120.17 0c-807.98,0 -1469.16,-661.19 -1469.16,-1469.17l0 -1048.58z"/>
  <path class="fil0" d="M1469.19 0l25309.01 0c808.05,0 1469.19,661.14 1469.19,1469.19l0 20913.33c0,808.03 -661.16,1469.19 -1469.19,1469.19l-5022.03 0c-807.99,0 -1469.17,-661.18 -1469.17,-1469.17l0 -3012.11c0,-807.99 -661.16,-1469.17 -1469.17,-1469.17l-9388.18 0c-808,0 -1469.16,661.16 -1469.16,1469.17l0 3012.11c0,807.99 -661.18,1469.17 -1469.17,1469.17l-5022.12 0c-808.03,0 -1469.19,-661.13 -1469.19,-1469.19l0 -20913.33c0,-808.05 661.14,-1469.19 1469.19,-1469.19zm7956.37 6254.09l9396.26 0c808.06,0 1469.17,661.27 1469.17,1469.17l0 2092.45c0,807.89 -661.27,1469.17 -1469.17,1469.17l-9396.26 0c-807.9,0 -1469.17,-661.12 -1469.17,-1469.17l0 -2092.45c0,-808.05 661.11,-1469.17 1469.17,-1469.17z"/>
 </g>
</svg>
